<?xml version="1.0" encoding="UTF-8" standalone="no"?>
<!-- Created with Inkscape (http://www.inkscape.org/) -->

<svg
   xmlns:dc="http://purl.org/dc/elements/1.1/"
   xmlns:cc="http://creativecommons.org/ns#"
   xmlns:rdf="http://www.w3.org/1999/02/22-rdf-syntax-ns#"
   xmlns:svg="http://www.w3.org/2000/svg"
   xmlns="http://www.w3.org/2000/svg"
   xmlns:sodipodi="http://sodipodi.sourceforge.net/DTD/sodipodi-0.dtd"
   xmlns:inkscape="http://www.inkscape.org/namespaces/inkscape"
   width="27.781765mm"
   height="50.442398mm"
   viewBox="0 0 27.781765 50.442398"
   version="1.1"
   id="svg8"
   sodipodi:docname="lamp_off.svg"
   inkscape:version="0.92.3 (2405546, 2018-03-11)">
  <defs
     id="defs2" />
  <sodipodi:namedview
     id="base"
     pagecolor="#ffffff"
     bordercolor="#666666"
     borderopacity="1.0"
     inkscape:pageopacity="0.0"
     inkscape:pageshadow="2"
     inkscape:zoom="2.8284272"
     inkscape:cx="-107.82456"
     inkscape:cy="113.26604"
     inkscape:document-units="mm"
     inkscape:current-layer="layer1"
     showgrid="false"
     inkscape:window-width="1920"
     inkscape:window-height="1136"
     inkscape:window-x="0"
     inkscape:window-y="27"
     inkscape:window-maximized="1"
     fit-margin-top="0"
     fit-margin-left="0"
     fit-margin-right="0"
     fit-margin-bottom="0" />
  <metadata
     id="metadata5">
    <rdf:RDF>
      <cc:Work
         rdf:about="">
        <dc:format>image/svg+xml</dc:format>
        <dc:type
           rdf:resource="http://purl.org/dc/dcmitype/StillImage" />
        <dc:title />
      </cc:Work>
    </rdf:RDF>
  </metadata>
  <g
     inkscape:label="Layer 1"
     inkscape:groupmode="layer"
     id="layer1"
     transform="translate(-91.109117,-123.2788)">
    <path
       inkscape:connector-curvature="0"
       style="opacity:1;fill:#666666;fill-opacity:1;stroke:none;stroke-width:4.79275465;stroke-miterlimit:4;stroke-dasharray:none;stroke-opacity:1"
       d="m 98.643024,159.75461 v 2.99362 4.84621 3.13366 c 0,1.65835 1.334743,2.9931 2.993096,2.9931 h 6.72776 c 1.65835,0 2.9931,-1.33475 2.9931,-2.9931 v -3.13366 -4.84621 -2.99362 h -2.9931 -6.72776 z"
       id="rect818" />
    <path
       style="opacity:1;fill:#424242;fill-opacity:1;stroke:none;stroke-width:1.0607599;stroke-linecap:round;stroke-miterlimit:4;stroke-dasharray:none;stroke-opacity:1"
       d="m 98.643024,159.75461 v 0.54223 l 2.400886,2.67359 8.66304,-3.21582 h -1.34307 -6.72776 z"
       id="rect926"
       inkscape:connector-curvature="0" />
    <path
       style="opacity:1;fill:#999999;fill-opacity:0.58506227;stroke:#666666;stroke-width:1.32291663;stroke-miterlimit:4;stroke-dasharray:none;stroke-opacity:1"
       d="m 105.00026,123.94026 c -8.535966,0 -13.22969,5.42286 -13.229685,11.65924 3e-6,3.11819 1.002501,6.81533 5.078243,15.92615 1.175031,2.62665 0.02611,4.38816 1.534197,8.22896 H 111.6175 c 1.50807,-3.8408 0.35917,-5.60231 1.5342,-8.22896 4.07574,-9.11082 5.07773,-12.80796 5.07772,-15.92615 0,-6.23638 -4.6932,-11.65924 -13.22916,-11.65924 z"
       id="rect815"
       inkscape:connector-curvature="0"
       sodipodi:nodetypes="sssccsss" />
    <path
       style="color:#000000;font-style:normal;font-variant:normal;font-weight:normal;font-stretch:normal;font-size:medium;line-height:normal;font-family:sans-serif;font-variant-ligatures:normal;font-variant-position:normal;font-variant-caps:normal;font-variant-numeric:normal;font-variant-alternates:normal;font-feature-settings:normal;text-indent:0;text-align:start;text-decoration:none;text-decoration-line:none;text-decoration-style:solid;text-decoration-color:#000000;letter-spacing:normal;word-spacing:normal;text-transform:none;writing-mode:lr-tb;direction:ltr;text-orientation:mixed;dominant-baseline:auto;baseline-shift:baseline;text-anchor:start;white-space:normal;shape-padding:0;clip-rule:nonzero;display:inline;overflow:visible;visibility:visible;opacity:1;isolation:auto;mix-blend-mode:normal;color-interpolation:sRGB;color-interpolation-filters:linearRGB;solid-color:#000000;solid-opacity:1;vector-effect:none;fill:#666666;fill-opacity:1;fill-rule:nonzero;stroke:none;stroke-width:1.21522975;stroke-linecap:round;stroke-linejoin:miter;stroke-miterlimit:4;stroke-dasharray:none;stroke-dashoffset:0;stroke-opacity:1;color-rendering:auto;image-rendering:auto;shape-rendering:auto;text-rendering:auto;enable-background:accumulate"
       d="m 99.677584,138.58794 a 0.55821018,0.66152444 0 0 0 -0.544152,0.67748 c 0,0 0.06106,5.67299 0.09095,11.33988 0.0086,1.62368 0.617625,3.47668 1.387508,5.2989 0.48759,1.15404 1.04341,2.27449 1.57769,3.28817 h 1.31878 c -0.6278,-1.15409 -1.31944,-2.51155 -1.89756,-3.87987 -0.73541,-1.74062 -1.26434,-3.50382 -1.27072,-4.71495 -0.0299,-5.6724 -0.0889,-11.34763 -0.0889,-11.34763 a 0.55821018,0.66152444 0 0 0 -0.573612,-0.66198 z"
       id="path827"
       inkscape:connector-curvature="0" />
    <path
       style="color:#000000;font-style:normal;font-variant:normal;font-weight:normal;font-stretch:normal;font-size:medium;line-height:normal;font-family:sans-serif;font-variant-ligatures:normal;font-variant-position:normal;font-variant-caps:normal;font-variant-numeric:normal;font-variant-alternates:normal;font-feature-settings:normal;text-indent:0;text-align:start;text-decoration:none;text-decoration-line:none;text-decoration-style:solid;text-decoration-color:#000000;letter-spacing:normal;word-spacing:normal;text-transform:none;writing-mode:lr-tb;direction:ltr;text-orientation:mixed;dominant-baseline:auto;baseline-shift:baseline;text-anchor:start;white-space:normal;shape-padding:0;clip-rule:nonzero;display:inline;overflow:visible;visibility:visible;opacity:1;isolation:auto;mix-blend-mode:normal;color-interpolation:sRGB;color-interpolation-filters:linearRGB;solid-color:#000000;solid-opacity:1;vector-effect:none;fill:#666666;fill-opacity:1;fill-rule:nonzero;stroke:none;stroke-width:1.21522975;stroke-linecap:round;stroke-linejoin:miter;stroke-miterlimit:4;stroke-dasharray:none;stroke-dashoffset:0;stroke-opacity:1;color-rendering:auto;image-rendering:auto;shape-rendering:auto;text-rendering:auto;enable-background:accumulate"
       d="m 110.31105,138.58794 a 0.55821018,0.66152444 0 0 0 -0.55708,0.66198 c 0,0 -0.0595,5.67523 -0.0894,11.34763 -0.006,1.21113 -0.53479,2.97433 -1.2702,4.71495 -0.57813,1.36834 -1.27027,2.72577 -1.89808,3.87987 h 1.31775 c 0.53477,-1.01371 1.09112,-2.13409 1.57871,-3.28817 0.76989,-1.82222 1.37947,-3.67522 1.38803,-5.2989 0.0299,-5.66689 0.0904,-11.33988 0.0904,-11.33988 a 0.55821018,0.66152444 0 0 0 -0.56017,-0.67748 z"
       id="path829"
       inkscape:connector-curvature="0" />
    <path
       style="color:#000000;font-style:normal;font-variant:normal;font-weight:normal;font-stretch:normal;font-size:medium;line-height:normal;font-family:sans-serif;font-variant-ligatures:normal;font-variant-position:normal;font-variant-caps:normal;font-variant-numeric:normal;font-variant-alternates:normal;font-feature-settings:normal;text-indent:0;text-align:start;text-decoration:none;text-decoration-line:none;text-decoration-style:solid;text-decoration-color:#000000;letter-spacing:normal;word-spacing:normal;text-transform:none;writing-mode:lr-tb;direction:ltr;text-orientation:mixed;dominant-baseline:auto;baseline-shift:baseline;text-anchor:start;white-space:normal;shape-padding:0;clip-rule:nonzero;display:inline;overflow:visible;visibility:visible;opacity:1;isolation:auto;mix-blend-mode:normal;color-interpolation:sRGB;color-interpolation-filters:linearRGB;solid-color:#000000;solid-opacity:1;vector-effect:none;fill:#666666;fill-opacity:0.95294118;fill-rule:nonzero;stroke:none;stroke-width:0.90561473;stroke-linecap:round;stroke-linejoin:miter;stroke-miterlimit:4;stroke-dasharray:none;stroke-dashoffset:0;stroke-opacity:1;color-rendering:auto;image-rendering:auto;shape-rendering:auto;text-rendering:auto;enable-background:accumulate"
       d="m 100.73502,139.09162 c 0.0323,0.16647 0.0707,0.32459 0.11721,0.46716 l 1.61501,4.94492 c 0.30372,0.92998 0.8042,0.93153 1.10792,0.001 l 1.61501,-4.94492 c 0.0467,-0.14305 0.0854,-0.30148 0.11769,-0.4687 h -0.69744 l -1.40166,4.29177 c -0.10731,0.32859 -0.26829,0.32859 -0.3756,0 l -1.40167,-4.29173 z"
       id="rect831"
       inkscape:connector-curvature="0" />
    <path
       id="path849"
       d="m 104.61139,139.09162 c 0.0323,0.16647 0.0707,0.32459 0.11721,0.46716 l 1.61501,4.94492 c 0.30372,0.92998 0.80419,0.93153 1.10791,0.001 l 1.61501,-4.94492 c 0.0467,-0.14305 0.0854,-0.30148 0.11769,-0.4687 h -0.69744 l -1.40166,4.29172 c -0.10731,0.32859 -0.26829,0.32859 -0.3756,0 l -1.40166,-4.29172 z"
       style="color:#000000;font-style:normal;font-variant:normal;font-weight:normal;font-stretch:normal;font-size:medium;line-height:normal;font-family:sans-serif;font-variant-ligatures:normal;font-variant-position:normal;font-variant-caps:normal;font-variant-numeric:normal;font-variant-alternates:normal;font-feature-settings:normal;text-indent:0;text-align:start;text-decoration:none;text-decoration-line:none;text-decoration-style:solid;text-decoration-color:#000000;letter-spacing:normal;word-spacing:normal;text-transform:none;writing-mode:lr-tb;direction:ltr;text-orientation:mixed;dominant-baseline:auto;baseline-shift:baseline;text-anchor:start;white-space:normal;shape-padding:0;clip-rule:nonzero;display:inline;overflow:visible;visibility:visible;opacity:1;isolation:auto;mix-blend-mode:normal;color-interpolation:sRGB;color-interpolation-filters:linearRGB;solid-color:#000000;solid-opacity:1;vector-effect:none;fill:#666666;fill-opacity:0.95294118;fill-rule:nonzero;stroke:none;stroke-width:0.90561473;stroke-linecap:round;stroke-linejoin:miter;stroke-miterlimit:4;stroke-dasharray:none;stroke-dashoffset:0;stroke-opacity:1;color-rendering:auto;image-rendering:auto;shape-rendering:auto;text-rendering:auto;enable-background:accumulate"
       inkscape:connector-curvature="0" />
    <rect
       style="opacity:1;fill:#424242;fill-opacity:1;stroke:none;stroke-width:0.99340272;stroke-linecap:round;stroke-miterlimit:4;stroke-dasharray:none;stroke-opacity:0.95294118"
       id="rect911"
       width="12.195395"
       height="2.1864541"
       x="100.91837"
       y="183.24617"
       ry="0.99816376"
       transform="matrix(0.98116103,-0.19319168,0,1,0,0)" />
    <rect
       transform="matrix(0.98116103,-0.19319168,0,1,0,0)"
       ry="0.99816376"
       y="186.2766"
       x="100.91837"
       height="2.1864541"
       width="12.195395"
       id="rect913"
       style="opacity:1;fill:#424242;fill-opacity:1;stroke:none;stroke-width:0.99340272;stroke-linecap:round;stroke-miterlimit:4;stroke-dasharray:none;stroke-opacity:0.95294118" />
    <rect
       style="opacity:1;fill:#424242;fill-opacity:1;stroke:none;stroke-width:0.99340272;stroke-linecap:round;stroke-miterlimit:4;stroke-dasharray:none;stroke-opacity:0.95294118"
       id="rect915"
       width="12.195395"
       height="2.1864541"
       x="100.91837"
       y="189.30702"
       ry="0.99816376"
       transform="matrix(0.98116103,-0.19319168,0,1,0,0)" />
  </g>
</svg>
