<?xml version="1.0" encoding="UTF-8" standalone="no"?>
<!-- Created with Inkscape (http://www.inkscape.org/) -->

<svg
   xmlns:dc="http://purl.org/dc/elements/1.1/"
   xmlns:cc="http://creativecommons.org/ns#"
   xmlns:rdf="http://www.w3.org/1999/02/22-rdf-syntax-ns#"
   xmlns:svg="http://www.w3.org/2000/svg"
   xmlns="http://www.w3.org/2000/svg"
   xmlns:sodipodi="http://sodipodi.sourceforge.net/DTD/sodipodi-0.dtd"
   xmlns:inkscape="http://www.inkscape.org/namespaces/inkscape"
   width="27.781765mm"
   height="50.442398mm"
   viewBox="0 0 27.781765 50.442398"
   version="1.1"
   id="svg8"
   sodipodi:docname="lamp.svg"
   inkscape:version="0.92.3 (2405546, 2018-03-11)">
  <defs
     id="defs2" />
  <sodipodi:namedview
     id="base"
     pagecolor="#ffffff"
     bordercolor="#666666"
     borderopacity="1.0"
     inkscape:pageopacity="0.0"
     inkscape:pageshadow="2"
     inkscape:zoom="1.4142136"
     inkscape:cx="-348.87045"
     inkscape:cy="61.811297"
     inkscape:document-units="mm"
     inkscape:current-layer="layer1"
     showgrid="false"
     inkscape:window-width="1920"
     inkscape:window-height="1163"
     inkscape:window-x="1920"
     inkscape:window-y="0"
     inkscape:window-maximized="1"
     fit-margin-top="0"
     fit-margin-left="0"
     fit-margin-right="0"
     fit-margin-bottom="0" />
  <metadata
     id="metadata5">
    <rdf:RDF>
      <cc:Work
         rdf:about="">
        <dc:format>image/svg+xml</dc:format>
        <dc:type
           rdf:resource="http://purl.org/dc/dcmitype/StillImage" />
        <dc:title></dc:title>
      </cc:Work>
    </rdf:RDF>
  </metadata>
  <g
     inkscape:label="Layer 1"
     inkscape:groupmode="layer"
     id="layer1"
     transform="translate(-91.109117,-123.2788)">
    <g
       id="g967"
       transform="translate(31.483816,61.133241)">
      <path
         id="rect818"
         transform="scale(0.26458333)"
         d="m 253.83008,372.74219 v 11.31445 18.31641 11.84375 c 0,6.26779 5.0447,11.3125 11.3125,11.3125 h 25.42773 c 6.2678,0 11.3125,-5.04471 11.3125,-11.3125 v -11.84375 -18.31641 -11.31445 h -11.3125 -25.42773 z"
         style="opacity:1;fill:#666666;fill-opacity:1;stroke:none;stroke-width:18.11434937;stroke-miterlimit:4;stroke-dasharray:none;stroke-opacity:1"
         inkscape:connector-curvature="0" />
      <path
         inkscape:connector-curvature="0"
         id="rect926"
         d="m 67.159208,98.62137 v 0.542228 l 2.400887,2.673592 8.663035,-3.21582 h -1.34307 -6.727753 z"
         style="opacity:1;fill:#424242;fill-opacity:1;stroke:none;stroke-width:1.0607599;stroke-linecap:round;stroke-miterlimit:4;stroke-dasharray:none;stroke-opacity:1" />
      <path
         sodipodi:nodetypes="sssccsss"
         inkscape:connector-curvature="0"
         id="rect815"
         d="m 73.516441,62.807018 c -8.535963,-2e-6 -13.229687,5.422858 -13.229682,11.659238 3e-6,3.118191 1.002501,6.81533 5.078243,15.926157 1.175031,2.626643 0.02611,4.388154 1.534197,8.228957 h 13.234485 c 1.508072,-3.840803 0.359166,-5.602314 1.534199,-8.228957 4.07574,-9.110827 5.077728,-12.807966 5.077725,-15.926157 -5e-6,-6.23638 -4.693203,-11.659235 -13.229167,-11.659238 z"
         style="opacity:1;fill:#ffd42a;fill-opacity:0.85477181;stroke:#666666;stroke-width:1.32291663;stroke-miterlimit:4;stroke-dasharray:none;stroke-opacity:1" />
      <path
         inkscape:connector-curvature="0"
         id="path827"
         d="m 68.193768,77.454703 a 0.55821018,0.66152444 0 0 0 -0.544152,0.677477 c 0,0 0.06106,5.672989 0.09095,11.339877 0.0086,1.623685 0.617625,3.476683 1.387512,5.2989 0.487582,1.154042 1.043408,2.274488 1.577684,3.288173 h 1.318781 c -0.627803,-1.154094 -1.319442,-2.511546 -1.897557,-3.879868 -0.735412,-1.74062 -1.264338,-3.503819 -1.270725,-4.714957 -0.02991,-5.672397 -0.08888,-11.347627 -0.08888,-11.347627 a 0.55821018,0.66152444 0 0 0 -0.573609,-0.661975 z"
         style="color:#000000;font-style:normal;font-variant:normal;font-weight:normal;font-stretch:normal;font-size:medium;line-height:normal;font-family:sans-serif;font-variant-ligatures:normal;font-variant-position:normal;font-variant-caps:normal;font-variant-numeric:normal;font-variant-alternates:normal;font-feature-settings:normal;text-indent:0;text-align:start;text-decoration:none;text-decoration-line:none;text-decoration-style:solid;text-decoration-color:#000000;letter-spacing:normal;word-spacing:normal;text-transform:none;writing-mode:lr-tb;direction:ltr;text-orientation:mixed;dominant-baseline:auto;baseline-shift:baseline;text-anchor:start;white-space:normal;shape-padding:0;clip-rule:nonzero;display:inline;overflow:visible;visibility:visible;opacity:1;isolation:auto;mix-blend-mode:normal;color-interpolation:sRGB;color-interpolation-filters:linearRGB;solid-color:#000000;solid-opacity:1;vector-effect:none;fill:#666666;fill-opacity:1;fill-rule:nonzero;stroke:none;stroke-width:1.21522975;stroke-linecap:round;stroke-linejoin:miter;stroke-miterlimit:4;stroke-dasharray:none;stroke-dashoffset:0;stroke-opacity:1;color-rendering:auto;image-rendering:auto;shape-rendering:auto;text-rendering:auto;enable-background:accumulate" />
      <path
         inkscape:connector-curvature="0"
         id="path829"
         d="m 78.827229,77.454703 a 0.55821018,0.66152444 0 0 0 -0.557072,0.661975 c 0,0 -0.05948,5.67523 -0.0894,11.347627 -0.0064,1.211138 -0.534794,2.974337 -1.270206,4.714957 -0.578123,1.368335 -1.270267,2.725769 -1.898076,3.879868 h 1.317749 c 0.534773,-1.013711 1.091118,-2.134094 1.578713,-3.288173 0.769888,-1.822217 1.379467,-3.675215 1.388031,-5.2989 0.02988,-5.666888 0.09043,-11.339877 0.09043,-11.339877 a 0.55821018,0.66152444 0 0 0 -0.560174,-0.677477 z"
         style="color:#000000;font-style:normal;font-variant:normal;font-weight:normal;font-stretch:normal;font-size:medium;line-height:normal;font-family:sans-serif;font-variant-ligatures:normal;font-variant-position:normal;font-variant-caps:normal;font-variant-numeric:normal;font-variant-alternates:normal;font-feature-settings:normal;text-indent:0;text-align:start;text-decoration:none;text-decoration-line:none;text-decoration-style:solid;text-decoration-color:#000000;letter-spacing:normal;word-spacing:normal;text-transform:none;writing-mode:lr-tb;direction:ltr;text-orientation:mixed;dominant-baseline:auto;baseline-shift:baseline;text-anchor:start;white-space:normal;shape-padding:0;clip-rule:nonzero;display:inline;overflow:visible;visibility:visible;opacity:1;isolation:auto;mix-blend-mode:normal;color-interpolation:sRGB;color-interpolation-filters:linearRGB;solid-color:#000000;solid-opacity:1;vector-effect:none;fill:#666666;fill-opacity:1;fill-rule:nonzero;stroke:none;stroke-width:1.21522975;stroke-linecap:round;stroke-linejoin:miter;stroke-miterlimit:4;stroke-dasharray:none;stroke-dashoffset:0;stroke-opacity:1;color-rendering:auto;image-rendering:auto;shape-rendering:auto;text-rendering:auto;enable-background:accumulate" />
      <path
         inkscape:connector-curvature="0"
         id="rect831"
         d="m 69.251208,77.958383 c 0.03228,0.166471 0.07065,0.324589 0.117208,0.467154 l 1.615011,4.94492 c 0.30372,0.929984 0.804192,0.931537 1.107912,0.0015 l 1.61501,-4.944917 c 0.04672,-0.143047 0.08535,-0.301476 0.117694,-0.468704 h -0.697441 l -1.401661,4.291774 c -0.107312,0.328586 -0.268289,0.328586 -0.375601,0 l -1.401661,-4.291727 z"
         style="color:#000000;font-style:normal;font-variant:normal;font-weight:normal;font-stretch:normal;font-size:medium;line-height:normal;font-family:sans-serif;font-variant-ligatures:normal;font-variant-position:normal;font-variant-caps:normal;font-variant-numeric:normal;font-variant-alternates:normal;font-feature-settings:normal;text-indent:0;text-align:start;text-decoration:none;text-decoration-line:none;text-decoration-style:solid;text-decoration-color:#000000;letter-spacing:normal;word-spacing:normal;text-transform:none;writing-mode:lr-tb;direction:ltr;text-orientation:mixed;dominant-baseline:auto;baseline-shift:baseline;text-anchor:start;white-space:normal;shape-padding:0;clip-rule:nonzero;display:inline;overflow:visible;visibility:visible;opacity:1;isolation:auto;mix-blend-mode:normal;color-interpolation:sRGB;color-interpolation-filters:linearRGB;solid-color:#000000;solid-opacity:1;vector-effect:none;fill:#666666;fill-opacity:0.95294118;fill-rule:nonzero;stroke:none;stroke-width:0.90561473;stroke-linecap:round;stroke-linejoin:miter;stroke-miterlimit:4;stroke-dasharray:none;stroke-dashoffset:0;stroke-opacity:1;color-rendering:auto;image-rendering:auto;shape-rendering:auto;text-rendering:auto;enable-background:accumulate" />
      <path
         inkscape:connector-curvature="0"
         style="color:#000000;font-style:normal;font-variant:normal;font-weight:normal;font-stretch:normal;font-size:medium;line-height:normal;font-family:sans-serif;font-variant-ligatures:normal;font-variant-position:normal;font-variant-caps:normal;font-variant-numeric:normal;font-variant-alternates:normal;font-feature-settings:normal;text-indent:0;text-align:start;text-decoration:none;text-decoration-line:none;text-decoration-style:solid;text-decoration-color:#000000;letter-spacing:normal;word-spacing:normal;text-transform:none;writing-mode:lr-tb;direction:ltr;text-orientation:mixed;dominant-baseline:auto;baseline-shift:baseline;text-anchor:start;white-space:normal;shape-padding:0;clip-rule:nonzero;display:inline;overflow:visible;visibility:visible;opacity:1;isolation:auto;mix-blend-mode:normal;color-interpolation:sRGB;color-interpolation-filters:linearRGB;solid-color:#000000;solid-opacity:1;vector-effect:none;fill:#666666;fill-opacity:0.95294118;fill-rule:nonzero;stroke:none;stroke-width:0.90561473;stroke-linecap:round;stroke-linejoin:miter;stroke-miterlimit:4;stroke-dasharray:none;stroke-dashoffset:0;stroke-opacity:1;color-rendering:auto;image-rendering:auto;shape-rendering:auto;text-rendering:auto;enable-background:accumulate"
         d="m 73.12757,77.958383 c 0.03228,0.166471 0.07065,0.324589 0.117209,0.467154 l 1.61501,4.94492 c 0.303721,0.929984 0.804192,0.931537 1.107913,0.0015 l 1.615011,-4.944917 c 0.04672,-0.143047 0.08535,-0.301476 0.117692,-0.468704 h -0.69744 l -1.401661,4.291727 c -0.107312,0.328586 -0.268289,0.328586 -0.375601,0 l -1.401661,-4.291727 z"
         id="path849" />
      <rect
         transform="matrix(0.98116103,-0.19319168,0,1,0,0)"
         ry="0.99816376"
         y="115.91373"
         x="68.830048"
         height="2.1864541"
         width="12.195395"
         id="rect911"
         style="opacity:1;fill:#424242;fill-opacity:1;stroke:none;stroke-width:0.99340272;stroke-linecap:round;stroke-miterlimit:4;stroke-dasharray:none;stroke-opacity:0.95294118" />
      <rect
         style="opacity:1;fill:#424242;fill-opacity:1;stroke:none;stroke-width:0.99340272;stroke-linecap:round;stroke-miterlimit:4;stroke-dasharray:none;stroke-opacity:0.95294118"
         id="rect913"
         width="12.195395"
         height="2.1864541"
         x="68.830048"
         y="118.94416"
         ry="0.99816376"
         transform="matrix(0.98116103,-0.19319168,0,1,0,0)" />
      <rect
         transform="matrix(0.98116103,-0.19319168,0,1,0,0)"
         ry="0.99816376"
         y="121.97458"
         x="68.830048"
         height="2.1864541"
         width="12.195395"
         id="rect915"
         style="opacity:1;fill:#424242;fill-opacity:1;stroke:none;stroke-width:0.99340272;stroke-linecap:round;stroke-miterlimit:4;stroke-dasharray:none;stroke-opacity:0.95294118" />
    </g>
  </g>
</svg>
